<svg width="112" height="16" viewBox="0 0 112 16" fill="none" xmlns="http://www.w3.org/2000/svg">
<g clip-path="url(#clip0_355_78)">
<path d="M21.6506 7.47946C22.5412 5.15639 22.4647 3.35126 21.4212 2.06151C20.3776 0.776898 18.4094 0.129462 15.5176 0.129462H5.72353L4.83882 2.45767H11.5824C15.0224 2.45767 16.0188 4.32562 14.8318 7.41921C14.1471 9.20895 13.54 10.8551 12.1082 11.5872C10.7976 12.2589 9.44471 12.4551 7.03647 12.4551L3.91765 12.4487L6.24706 6.42562H3.30941L0 15H8.87647C11.3647 15 13.3294 14.7487 14.7788 14.2487C16.3659 13.6936 17.7871 12.7807 19.0435 11.5115C20.2118 10.3013 21.0812 8.95895 21.6506 7.47946ZM82.8635 0.114078L82.8659 0.125616H79.2294L65.2576 14.3731L70.7188 0.12818H64.7294L57.4941 6.3051L53.7694 9.63844H53.6L55.3529 4.78203L53.2165 0.12818H47.2L41.7306 14.4L38.5788 0.12818H31.9847L17.4224 14.9987H21.0624L24.7847 11.1102H33.96L34.6906 14.9987H44.44L47.9635 5.80767C48.1412 5.34613 48.3106 4.81536 48.4765 4.22177C48.4929 4.70126 48.6129 5.21151 48.8294 5.74869L51.9294 13.4154H52.4541L61.3223 5.77562C61.6553 5.48844 62.1588 4.97049 62.8306 4.22177C62.4871 4.91536 62.2471 5.441 62.1071 5.80767L58.5835 14.9987H65.02L65.0212 14.9948H71.8071L75.4882 11.0884H85.0188L85.7835 14.9948H89.1329L85.8682 0.112796H82.8635V0.114078ZM26.7024 9.07049L32.5094 3.01792L33.5576 9.07049H26.7024ZM77.4118 9.04869L83.3741 2.72305L84.6129 9.04869H77.4118ZM111.894 0.101257H102.012C99.1176 0.101257 96.6518 0.748693 94.6235 2.03715C92.5929 3.32562 91.1306 5.13587 90.2388 7.46023C89.6706 8.93715 89.5094 10.2897 89.7529 11.4936C90.0412 12.7679 90.7588 13.6833 91.9235 14.2372C92.9823 14.7346 94.7623 14.9884 97.2506 14.9884H106.109L106.995 12.6269H102.004C99.6 12.6269 97.9965 12.2884 97.1976 11.6141C96.3259 10.8846 96.4235 9.19485 97.1035 7.39997C98.2953 4.30126 100.784 2.37049 104.224 2.37049H108.092L107.205 4.70254H110.14L111.894 0.101257Z" fill="white"/>
</g>
<defs>
<clipPath id="clip0_355_78">
<rect width="112" height="15" fill="white" transform="translate(0 0.0974121)"/>
</clipPath>
</defs>
</svg>
