<svg width="14" height="10" viewBox="0 0 14 10" fill="none" xmlns="http://www.w3.org/2000/svg">
<path fill-rule="evenodd" clip-rule="evenodd" d="M12.3007 0.671417H11.5369C11.115 0.671417 10.773 1.03479 10.773 1.48302V8.51695C10.773 8.96519 11.115 9.32856 11.5369 9.32856H12.3007C12.7226 9.32856 13.0646 8.96519 13.0646 8.51695V1.48302C13.0646 1.03479 12.7226 0.671417 12.3007 0.671417ZM7.97211 2.56517H8.73598C9.15785 2.56517 9.49985 2.92854 9.49985 3.37677V8.51695C9.49985 8.96519 9.15785 9.32856 8.73598 9.32856H7.97211C7.55024 9.32856 7.20825 8.96519 7.20825 8.51695V3.37677C7.20825 2.92854 7.55024 2.56517 7.97211 2.56517ZM5.17133 4.45892H4.40746C3.98559 4.45892 3.6436 4.82229 3.6436 5.27052V8.51695C3.6436 8.96519 3.98559 9.32856 4.40746 9.32856H5.17133C5.5932 9.32856 5.93519 8.96519 5.93519 8.51695V5.27052C5.93519 4.82229 5.5932 4.45892 5.17133 4.45892ZM1.60659 6.08213H0.842723C0.420852 6.08213 0.0788574 6.4455 0.0788574 6.89374V8.51695C0.0788574 8.96519 0.420852 9.32856 0.842723 9.32856H1.60659C2.02846 9.32856 2.37045 8.96519 2.37045 8.51695V6.89374C2.37045 6.4455 2.02846 6.08213 1.60659 6.08213Z" fill="white"/>
</svg>
