<svg width="48" height="49" viewBox="0 0 48 49" fill="none" xmlns="http://www.w3.org/2000/svg">
<path d="M45.4939 24.5803C45.426 24.405 45.3924 24.2224 45.3924 24.0397C45.3924 23.8559 45.426 23.6731 45.4939 23.4992L47.2865 18.8896C47.4412 18.492 47.5161 18.0769 47.5161 17.6695C47.5168 16.5388 46.9426 15.4479 45.931 14.8005L41.7133 12.1044C41.3954 11.9006 41.164 11.5888 41.0649 11.2284L39.7488 6.46726C39.3332 4.96759 37.9454 3.93632 36.3722 3.93501C36.3132 3.93501 36.2543 3.93754 36.1946 3.93999L36.2834 3.93501L31.1791 4.18602L31.0909 4.18724C30.7363 4.18724 30.3931 4.0692 30.1165 3.85181L26.1947 0.757914C25.5559 0.253455 24.7756 -0.00130961 24.0006 5.06211e-06C23.2247 -0.00130961 22.4446 0.253455 21.8045 0.757914L21.8052 0.759229L17.8832 3.85171C17.6072 4.0692 17.2628 4.18714 16.9088 4.18714L16.8517 4.18592L11.8031 3.93989H11.8127C11.7436 3.93614 11.682 3.93614 11.6275 3.93614C10.0545 3.93614 8.66715 4.9674 8.2517 6.46707L6.93544 11.2283C6.83649 11.5886 6.60503 11.9004 6.28718 12.1042L2.06955 14.8004C1.05781 15.4478 0.483094 16.5399 0.483765 17.6705C0.483765 18.0781 0.558553 18.4918 0.71273 18.8894L2.50658 23.499C2.57389 23.6729 2.60811 23.8556 2.60811 24.0396C2.60811 24.2222 2.57446 24.4048 2.50658 24.5788L0.713401 29.1897C0.558649 29.586 0.483765 29.9997 0.483765 30.4073C0.483094 31.538 1.05714 32.6302 2.06955 33.2787L6.28718 35.9751C6.60493 36.1789 6.83649 36.4895 6.93544 36.8498L8.2517 41.611C8.66715 43.1107 10.055 44.1419 11.6275 44.1419C11.682 44.1419 11.7398 44.1419 11.802 44.1382L16.8335 43.8921H16.843L16.9115 43.8897C17.2636 43.8909 17.6068 44.009 17.8833 44.2264L21.8053 47.3215C22.4447 47.8259 23.2243 48.0794 24.0007 48.0794C24.7758 48.0794 25.556 47.8259 26.1954 47.3215L30.1175 44.2264C30.394 44.0077 30.7366 43.8897 31.0891 43.8897L31.1647 43.8921L36.1726 44.137L36.2062 44.1382C36.2583 44.1406 36.3134 44.1419 36.3724 44.1419C37.9448 44.1419 39.3334 43.1119 39.749 41.611L41.0651 36.8498C41.1641 36.4895 41.395 36.1789 41.7128 35.9751L45.9311 33.2789C46.9428 32.6304 47.5169 31.5394 47.5162 30.4088C47.5162 30.0012 47.4413 29.5862 47.2866 29.1887L45.4939 24.5803ZM44.8646 31.6811L40.6476 34.3773C39.9289 34.837 39.4082 35.539 39.1836 36.3516L37.8674 41.1115C37.6846 41.7775 37.0674 42.2335 36.3722 42.2335L36.2872 42.2322L31.3529 41.9899L31.2673 41.9861C31.2102 41.9837 31.1512 41.9812 31.0889 41.9812C30.2923 41.9812 29.5172 42.2483 28.8942 42.7403L24.9723 45.8354C24.6874 46.059 24.3462 46.1708 24.0005 46.1708C23.6542 46.1708 23.3129 46.059 23.0281 45.8354L19.1061 42.7403C18.4831 42.2483 17.708 41.9812 16.9113 41.9812C16.8593 41.9824 16.7997 41.9824 16.7357 41.9861L11.7054 42.2322L11.6274 42.2335C10.9328 42.2347 10.3156 41.7763 10.1329 41.1128L8.81673 36.3503C8.59217 35.539 8.07135 34.837 7.35204 34.3773L3.13518 31.6811C2.68674 31.394 2.43304 30.9095 2.43236 30.4074C2.43236 30.2273 2.46535 30.0459 2.53381 29.8695L4.32708 25.2598C4.47991 24.8672 4.55671 24.4535 4.55671 24.0397C4.55671 23.626 4.47991 23.2122 4.32708 22.8183L2.53381 18.2099C2.46535 18.0322 2.43236 17.8508 2.43236 17.6706C2.43304 17.1687 2.68607 16.6854 3.1345 16.3983L7.35281 13.7021C8.07144 13.2411 8.59227 12.5391 8.81682 11.7277L10.133 6.96524C10.3157 6.3018 10.9336 5.84326 11.6275 5.84457L11.696 5.84589L11.7176 5.84711L16.6818 6.08938L16.7401 6.09182L16.9088 6.09549C17.7062 6.09549 18.4813 5.82964 19.1055 5.3388L23.0275 2.24368L22.4166 1.5007L23.0282 2.24368C23.313 2.01878 23.6543 1.90825 24.0006 1.90694C24.3463 1.90816 24.6875 2.01878 24.9724 2.24368L28.895 5.33748C29.5192 5.83077 30.2949 6.09539 31.091 6.09539C31.15 6.09539 31.204 6.09417 31.2528 6.09295L36.3267 5.84448L36.3724 5.84316C37.0671 5.84316 37.6848 6.3017 37.8676 6.96514L39.1838 11.7276C39.4084 12.539 39.9291 13.241 40.6478 13.7008L44.8654 16.3982C45.3139 16.6852 45.5676 17.1686 45.5676 17.6693C45.5676 17.8494 45.5353 18.0308 45.4655 18.211L43.6736 22.8194C43.52 23.2121 43.4439 23.6259 43.4439 24.0396C43.4439 24.4534 43.5206 24.8671 43.6736 25.2598L45.4661 29.8682C45.5353 30.047 45.5676 30.2285 45.5676 30.4087C45.5674 30.9095 45.3137 31.394 44.8646 31.6811Z" fill="#00357B"/>
<path d="M28.9707 15.4405C28.7778 15.151 28.4517 14.9745 28.1004 14.9745H27.4603C27.0582 14.9745 26.6935 15.2044 26.5235 15.5634L18.9617 31.6736C18.8196 31.9829 18.8425 32.3495 19.0315 32.6389C19.2231 32.9284 19.5515 33.1049 19.9036 33.1049H20.5405C20.9439 33.1049 21.3106 32.8762 21.478 32.5171L29.0409 16.407C29.1857 16.0978 29.161 15.7312 28.9707 15.4405Z" fill="#00357B"/>
<path d="M21.1475 22.6345C21.3296 22.1238 21.3847 22.4792 21.3847 20.8701C21.3847 19.2586 21.3296 19.6152 21.1475 19.1009C20.7054 17.8261 19.4513 17.0035 17.7786 17.0035C16.1071 17.0035 14.8557 17.8261 14.411 19.1009C14.2276 19.6153 14.175 19.2586 14.175 20.8701C14.175 22.4791 14.2276 22.1238 14.411 22.6345C14.8557 23.9142 16.1071 24.7331 17.7786 24.7331C19.4513 24.733 20.7054 23.9142 21.1475 22.6345ZM18.6933 22.1238C18.5614 22.509 18.2239 22.7115 17.7786 22.7115C17.3351 22.7115 16.9965 22.509 16.8651 22.1238C16.7865 21.9188 16.7617 22.4282 16.7617 20.8701C16.7617 19.3084 16.7864 19.8177 16.8651 19.6152C16.9965 19.23 17.3351 19.0251 17.7786 19.0251C18.2239 19.0251 18.5613 19.2301 18.6933 19.6152C18.7725 19.8176 18.7967 19.3083 18.7967 20.8701C18.7967 22.4282 18.7726 21.9188 18.6933 22.1238Z" fill="#00357B"/>
<path d="M29.6111 23.1156C27.9378 23.1156 26.6856 23.9345 26.2409 25.2104C26.0609 25.7248 26.0069 25.3658 26.0069 26.9773C26.0069 28.5888 26.0608 28.2334 26.2409 28.7416C26.6856 30.0226 27.9378 30.8439 29.6111 30.8439C31.2819 30.8439 32.5379 30.0226 32.9806 28.7416C33.1634 28.2334 33.2154 28.5888 33.2154 26.9773C33.2154 25.3658 33.1634 25.7248 32.9806 25.2104C32.5379 23.9345 31.2819 23.1156 29.6111 23.1156ZM30.5233 28.2334C30.3945 28.6161 30.0558 28.8211 29.6111 28.8211C29.1664 28.8211 28.8272 28.6161 28.6958 28.2334C28.6177 28.0297 28.5937 28.5366 28.5937 26.9773C28.5937 25.4154 28.6177 25.9274 28.6958 25.7248C28.8272 25.3372 29.1665 25.1334 29.6111 25.1334C30.0558 25.1334 30.3945 25.3372 30.5233 25.7248C30.6052 25.9274 30.6305 25.4155 30.6305 26.9773C30.6304 28.5367 30.6051 28.0297 30.5233 28.2334Z" fill="#00357B"/>
</svg>
