<svg width="47" height="45" viewBox="0 0 47 45" fill="none" xmlns="http://www.w3.org/2000/svg">
<path d="M32.3257 31.3116H30.9136C30.7186 31.3116 30.5605 31.4633 30.5605 31.6505V33.0061C30.5605 33.1933 30.7186 33.345 30.9136 33.345H32.3257C32.5207 33.345 32.6787 33.1933 32.6787 33.0061V31.6505C32.6787 31.4633 32.5207 31.3116 32.3257 31.3116Z" fill="#00357B"/>
<path d="M32.3257 27.9225H30.9136C30.7186 27.9225 30.5605 28.0742 30.5605 28.2614V29.617C30.5605 29.8042 30.7186 29.9559 30.9136 29.9559H32.3257C32.5207 29.9559 32.6787 29.8042 32.6787 29.617V28.2614C32.6787 28.0742 32.5207 27.9225 32.3257 27.9225Z" fill="#00357B"/>
<path d="M32.3257 24.5334H30.9136C30.7186 24.5334 30.5605 24.6852 30.5605 24.8724V26.228C30.5605 26.4152 30.7186 26.5669 30.9136 26.5669H32.3257C32.5207 26.5669 32.6787 26.4152 32.6787 26.228V24.8724C32.6787 24.6852 32.5207 24.5334 32.3257 24.5334Z" fill="#00357B"/>
<path d="M25.9712 27.2447H24.5591C24.3641 27.2447 24.2061 27.3964 24.2061 27.5836V28.9392C24.2061 29.1264 24.3641 29.2781 24.5591 29.2781H25.9712C26.1662 29.2781 26.3242 29.1264 26.3242 28.9392V27.5836C26.3242 27.3964 26.1662 27.2447 25.9712 27.2447Z" fill="#00357B"/>
<path d="M25.9712 24.5334H24.5591C24.3641 24.5334 24.2061 24.6852 24.2061 24.8724V26.228C24.2061 26.4152 24.3641 26.5669 24.5591 26.5669H25.9712C26.1662 26.5669 26.3242 26.4152 26.3242 26.228V24.8724C26.3242 24.6852 26.1662 24.5334 25.9712 24.5334Z" fill="#00357B"/>
<path d="M25.9712 21.8222H24.5591C24.3641 21.8222 24.2061 21.9739 24.2061 22.1611V23.5167C24.2061 23.7039 24.3641 23.8556 24.5591 23.8556H25.9712C26.1662 23.8556 26.3242 23.7039 26.3242 23.5167V22.1611C26.3242 21.9739 26.1662 21.8222 25.9712 21.8222Z" fill="#00357B"/>
<path d="M22.4409 27.2447H21.0288C20.8338 27.2447 20.6758 27.3964 20.6758 27.5836V28.9392C20.6758 29.1264 20.8338 29.2781 21.0288 29.2781H22.4409C22.6359 29.2781 22.7939 29.1264 22.7939 28.9392V27.5836C22.7939 27.3964 22.6359 27.2447 22.4409 27.2447Z" fill="#00357B"/>
<path d="M22.4409 24.5334H21.0288C20.8338 24.5334 20.6758 24.6852 20.6758 24.8724V26.228C20.6758 26.4152 20.8338 26.5669 21.0288 26.5669H22.4409C22.6359 26.5669 22.7939 26.4152 22.7939 26.228V24.8724C22.7939 24.6852 22.6359 24.5334 22.4409 24.5334Z" fill="#00357B"/>
<path d="M22.4409 21.8222H21.0288C20.8338 21.8222 20.6758 21.9739 20.6758 22.1611V23.5167C20.6758 23.7039 20.8338 23.8556 21.0288 23.8556H22.4409C22.6359 23.8556 22.7939 23.7039 22.7939 23.5167V22.1611C22.7939 21.9739 22.6359 21.8222 22.4409 21.8222Z" fill="#00357B"/>
<path d="M16.0864 31.3116H14.6743C14.4793 31.3116 14.3213 31.4633 14.3213 31.6505V33.0061C14.3213 33.1933 14.4793 33.345 14.6743 33.345H16.0864C16.2814 33.345 16.4395 33.1933 16.4395 33.0061V31.6505C16.4395 31.4633 16.2814 31.3116 16.0864 31.3116Z" fill="#00357B"/>
<path d="M16.0864 27.9225H14.6743C14.4793 27.9225 14.3213 28.0742 14.3213 28.2614V29.617C14.3213 29.8042 14.4793 29.9559 14.6743 29.9559H16.0864C16.2814 29.9559 16.4395 29.8042 16.4395 29.617V28.2614C16.4395 28.0742 16.2814 27.9225 16.0864 27.9225Z" fill="#00357B"/>
<path d="M16.0864 24.5334H14.6743C14.4793 24.5334 14.3213 24.6852 14.3213 24.8724V26.228C14.3213 26.4152 14.4793 26.5669 14.6743 26.5669H16.0864C16.2814 26.5669 16.4395 26.4152 16.4395 26.228V24.8724C16.4395 24.6852 16.2814 24.5334 16.0864 24.5334Z" fill="#00357B"/>
<path d="M5.14258 6.91032C6.31241 6.91032 7.26074 5.99992 7.26074 4.87688C7.26074 3.75385 6.31241 2.84344 5.14258 2.84344C3.97275 2.84344 3.02441 3.75385 3.02441 4.87688C3.02441 5.99992 3.97275 6.91032 5.14258 6.91032Z" fill="#00357B"/>
<path d="M10.085 6.91032C11.2548 6.91032 12.2031 5.99992 12.2031 4.87688C12.2031 3.75385 11.2548 2.84344 10.085 2.84344C8.91513 2.84344 7.9668 3.75385 7.9668 4.87688C7.9668 5.99992 8.91513 6.91032 10.085 6.91032Z" fill="#00357B"/>
<path d="M15.0273 6.91032C16.1972 6.91032 17.1455 5.99992 17.1455 4.87688C17.1455 3.75385 16.1972 2.84344 15.0273 2.84344C13.8575 2.84344 12.9092 3.75385 12.9092 4.87688C12.9092 5.99992 13.8575 6.91032 15.0273 6.91032Z" fill="#00357B"/>
<path d="M39.4632 35.6494L35.5029 34.6747V22.4999C35.5018 22.3783 35.4662 22.2594 35.4 22.1557C35.3339 22.0521 35.2396 21.9677 35.1273 21.9115C36.0612 21.2279 36.7797 20.3094 37.2032 19.2578C37.6266 18.2062 37.7384 17.0626 37.5262 15.9537C37.3141 14.8448 36.7862 13.814 36.0011 12.9755C35.216 12.137 34.2044 11.5236 33.0784 11.2033C31.9524 10.8829 30.756 10.8682 29.6218 11.1606C28.4875 11.4531 27.4598 12.0414 26.6526 12.8602C25.8453 13.6791 25.29 14.6965 25.0482 15.7998C24.8065 16.9031 24.8876 18.0491 25.2828 19.1108H18.5576C18.3704 19.1108 18.1908 19.1822 18.0584 19.3093C17.926 19.4365 17.8516 19.6089 17.8516 19.7886V21.8221H12.2031C12.0159 21.8221 11.8363 21.8935 11.7039 22.0206C11.5715 22.1477 11.4971 22.3201 11.4971 22.4999V35.3783C11.4971 35.5581 11.5715 35.7305 11.7039 35.8576C11.8363 35.9847 12.0159 36.0561 12.2031 36.0561H33.3728L34.679 40.3873C34.7175 40.5149 34.7943 40.6288 34.8997 40.7148C35.0051 40.8008 35.1345 40.8553 35.2718 40.8713C35.4092 40.8873 35.5484 40.8643 35.6722 40.805C35.796 40.7457 35.899 40.6528 35.9682 40.5378L37.3387 38.2658L39.6609 36.881C39.7786 36.811 39.8723 36.7092 39.9302 36.5884C39.9882 36.4677 40.0078 36.3332 39.9867 36.2018C39.9657 36.0704 39.9048 35.9478 39.8117 35.8494C39.7186 35.7509 39.5974 35.6809 39.4632 35.6481V35.6494ZM31.2666 12.3327C32.2441 12.3327 33.1997 12.611 34.0125 13.1323C34.8252 13.6537 35.4587 14.3947 35.8328 15.2617C36.2069 16.1286 36.3047 17.0826 36.114 18.003C35.9233 18.9234 35.4526 19.7688 34.7614 20.4324C34.0702 21.0959 33.1895 21.5478 32.2308 21.7309C31.2721 21.914 30.2783 21.82 29.3752 21.4609C28.4721 21.1018 27.7002 20.4936 27.1572 19.7134C26.6141 18.9331 26.3242 18.0158 26.3242 17.0774C26.3257 15.8195 26.8469 14.6135 27.7735 13.724C28.7 12.8345 29.9563 12.3341 31.2666 12.3327ZM12.9092 23.1777H17.8516V34.7005H12.9092V23.1777ZM19.2637 20.4664H25.9867C26.4503 21.1304 27.0447 21.701 27.7363 22.1461V34.7005H26.3242V31.3114C26.3242 31.1317 26.2498 30.9593 26.1174 30.8321C25.985 30.705 25.8054 30.6336 25.6182 30.6336H21.3818C21.1946 30.6336 21.015 30.705 20.8826 30.8321C20.7502 30.9593 20.6758 31.1317 20.6758 31.3114V34.7005H19.2637V20.4664ZM29.1484 23.1777H34.0908V34.3277L33.9496 34.2925C33.829 34.2628 33.7024 34.2644 33.5827 34.2969C33.4629 34.3294 33.3542 34.3917 33.2676 34.4775C33.2055 34.542 33.1575 34.6179 33.1264 34.7005H29.1484V23.1777Z" fill="#00357B"/>
<path d="M29.8542 20.4667C30.0414 20.4667 30.221 20.3952 30.3534 20.2681L35.2957 15.5234C35.4244 15.3956 35.4955 15.2244 35.4939 15.0466C35.4923 14.8689 35.4181 14.6989 35.2871 14.5733C35.1562 14.4476 34.9792 14.3763 34.794 14.3748C34.6089 14.3732 34.4305 14.4415 34.2974 14.565L29.8542 18.8305L28.2352 17.2762C28.102 17.1528 27.9237 17.0845 27.7386 17.086C27.5534 17.0875 27.3763 17.1588 27.2454 17.2845C27.1145 17.4102 27.0403 17.5802 27.0387 17.7579C27.0371 17.9356 27.1082 18.1068 27.2368 18.2347L29.355 20.2681C29.4874 20.3952 29.6669 20.4667 29.8542 20.4667Z" fill="#00357B"/>
<path d="M45.3877 0.809998H1.6123C1.42505 0.809998 1.24546 0.88141 1.11305 1.00852C0.980638 1.13564 0.90625 1.30804 0.90625 1.48781L0.90625 43.5122C0.90625 43.692 0.980638 43.8644 1.11305 43.9915C1.24546 44.1186 1.42505 44.19 1.6123 44.19H45.3877C45.575 44.19 45.7545 44.1186 45.887 43.9915C46.0194 43.8644 46.0938 43.692 46.0938 43.5122V1.48781C46.0938 1.30804 46.0194 1.13564 45.887 1.00852C45.7545 0.88141 45.575 0.809998 45.3877 0.809998ZM44.6816 2.16562V7.58812H2.31836V2.16562H44.6816ZM2.31836 42.8344V8.94375H44.6816V42.8344H2.31836Z" fill="#00357B"/>
</svg>
