<svg width="54" height="51" viewBox="0 0 54 51" fill="none" xmlns="http://www.w3.org/2000/svg">
<path d="M0.138794 39.6007H10.727V37.6826H2.14224V1.92897H10.727V0.0108643H0.138794V39.6007Z" fill="#00357B"/>
<path d="M10.7268 27.055H5.6781V28.9731H10.7268V27.055Z" fill="#00357B"/>
<path d="M10.7268 16.1885H5.6781V18.1066H10.7268V16.1885Z" fill="#00357B"/>
<path d="M10.7268 5.32281H5.6781V7.24093H10.7268V5.32281Z" fill="#00357B"/>
<path d="M10.7272 32.493H7.70203V34.4112H10.7272V32.493Z" fill="#00357B"/>
<path d="M10.7272 21.6267H7.70203V23.5448H10.7272V21.6267Z" fill="#00357B"/>
<path d="M10.7272 10.7511H7.70203V12.6692H10.7272V10.7511Z" fill="#00357B"/>
<path d="M18.3 37.6717H20.3035V20.284H42.5217V37.6717H44.5252V20.284H53.6108V18.3659H44.5252V0H42.5217V18.3659H20.3035V0H18.3V18.3659H13.2513V20.284H18.3V37.6717Z" fill="#00357B"/>
<path d="M51.8579 40.3381V48.5572H14.5036V40.3381H12.5001V50.4753H53.8613V40.3381H51.8579Z" fill="#00357B"/>
<path d="M42.7521 40.3381H40.7487V45.1717H42.7521V40.3381Z" fill="#00357B"/>
<path d="M31.4024 40.3381H29.3989V45.1717H31.4024V40.3381Z" fill="#00357B"/>
<path d="M20.0531 40.3381H18.0497V45.1717H20.0531V40.3381Z" fill="#00357B"/>
<path d="M48.4317 40.3381H46.4282V43.2344H48.4317V40.3381Z" fill="#00357B"/>
<path d="M37.0824 40.3381H35.079V43.2344H37.0824V40.3381Z" fill="#00357B"/>
<path d="M25.7331 40.3381H23.7296V43.2344H25.7331V40.3381Z" fill="#00357B"/>
</svg>
