<svg width="52" height="45" viewBox="0 0 52 45" fill="none" xmlns="http://www.w3.org/2000/svg">
<path fill-rule="evenodd" clip-rule="evenodd" d="M19.6736 21.8356C20.965 21.8356 22.0155 20.7238 22.0155 19.357C22.0155 17.9902 20.965 16.8784 19.6736 16.8784C18.3822 16.8784 17.3318 17.9902 17.3318 19.357C17.3318 20.7232 18.3822 21.8356 19.6736 21.8356ZM19.6736 18.6162C20.0594 18.6162 20.373 18.9481 20.373 19.3564C20.373 19.7647 20.0594 20.0966 19.6736 20.0966C19.2879 20.0966 18.9743 19.7647 18.9743 19.3564C18.9743 18.9481 19.2879 18.6162 19.6736 18.6162ZM17.7774 25.4527C19.5255 26.5207 21.6482 26.5716 23.4293 25.6166L27.1279 27.8768C27.3286 27.9993 27.5696 28.0265 27.7899 27.9514L28.8045 27.6058L29.0293 28.7088C29.0779 28.9484 29.2205 29.1555 29.4217 29.2786C29.6224 29.4011 29.8628 29.4283 30.0836 29.3531L31.0983 29.0076L31.323 30.1105C31.3717 30.3507 31.5142 30.5572 31.7155 30.6803L32.4953 31.1566C32.6211 31.2335 32.7631 31.2732 32.9062 31.2732C32.9677 31.2732 33.0292 31.2661 33.0902 31.2513L36.5551 30.4081C36.7771 30.3543 36.9683 30.2046 37.0823 29.9957C37.1964 29.7868 37.2232 29.5371 37.1561 29.3064L36.1135 25.7071C36.0525 25.497 35.9189 25.3189 35.7389 25.2089L26.6734 19.6688C26.5644 17.5588 25.4614 15.6382 23.7139 14.5701C20.8795 12.8382 17.2418 13.8696 15.6049 16.8695C13.968 19.87 14.943 23.7202 17.7774 25.4527ZM17.0271 17.7393C18.2106 15.5695 20.8415 14.8234 22.8921 16.076C24.2617 16.9133 25.0841 18.4742 25.0377 20.1493C25.0287 20.4688 25.1864 20.7676 25.448 20.9273L34.6376 26.5432L35.3269 28.9212L33.0365 29.4786L32.852 29.3656L32.5132 27.7017C32.4646 27.4615 32.322 27.255 32.1208 27.1319C31.9201 27.0094 31.6797 26.9822 31.4589 27.0573L30.4442 27.4029L30.2195 26.3C30.1708 26.0603 30.0283 25.8532 29.827 25.7302C29.6263 25.6077 29.3859 25.5805 29.1651 25.6556L27.6339 26.1769L23.8469 23.8628C23.5853 23.703 23.2621 23.7077 23.005 23.8758C21.6571 24.7562 19.9688 24.7829 18.5992 23.9462C16.5486 22.6942 15.8436 19.909 17.0271 17.7393ZM34.5079 33.9654L26.2525 36.3423C25.9853 36.4192 25.7225 36.4671 25.4609 36.4861C25.5649 36.35 25.6616 36.2009 25.7493 36.0399C26.5236 34.621 26.0714 32.7826 24.7201 31.8554C24.6888 31.8341 24.657 31.8152 24.6234 31.7986C22.683 30.8312 20.8599 29.4863 19.3947 28.4058C18.8831 28.0283 18.3996 27.6715 17.9825 27.3851C16.2579 26.2006 14.3655 26.5148 12.7415 26.9781L6.7664 28.6827L6.60595 28.0265C6.34208 26.9473 5.29834 26.297 4.27864 26.5763L1.9709 27.2082C0.951765 27.4875 0.336815 28.5922 0.600684 29.6715L3.70283 42.3575C3.83029 42.8788 4.1428 43.3172 4.58332 43.5918C4.88185 43.7776 5.21393 43.8728 5.55047 43.8728C5.71036 43.8728 5.87136 43.8515 6.03013 43.8077L8.33787 43.1758C8.83039 43.0409 9.24465 42.7101 9.50404 42.2439C9.76344 41.7776 9.83612 41.2338 9.70809 40.7126L9.36707 39.3191L10.5411 38.986L18.9715 44.1373C19.9096 44.7107 20.9091 45 21.9238 45C22.484 45 23.0486 44.9118 23.6104 44.7343L38.708 39.9635C40.166 39.5025 41.0851 37.5659 40.6362 35.9003C40.4198 35.0956 39.3364 32.5755 34.5079 33.9654ZM8.08854 41.3622C8.0673 41.4001 8.0181 41.4682 7.92642 41.493L5.61868 42.1249C5.52699 42.1498 5.45264 42.1161 5.41686 42.0936C5.38108 42.0711 5.31679 42.019 5.29331 41.922L2.19117 29.2354C2.15483 29.0869 2.2426 28.9289 2.38292 28.8904L4.6901 28.2585C4.71302 28.252 4.73483 28.2496 4.75551 28.2496C4.81645 28.2496 4.86508 28.2727 4.89248 28.2899C4.92826 28.3123 4.99255 28.3644 5.01602 28.4614L8.11761 41.148C8.14165 41.2451 8.10978 41.3238 8.08854 41.3622ZM38.2384 38.2984L23.1408 43.0693C21.9886 43.4332 20.8627 43.2864 19.7927 42.6326L11.0683 37.3008C10.8799 37.1854 10.6557 37.1547 10.4449 37.2138L8.95562 37.6363L7.17785 30.3655L13.1691 28.6561C14.5075 28.2745 15.9085 28.0325 17.0886 28.8431C17.4827 29.1135 17.9333 29.446 18.4555 29.8312C19.9576 30.9395 21.8232 32.3158 23.8676 33.343C24.4635 33.7796 24.662 34.5565 24.3271 35.1707C23.9928 35.7837 23.4662 35.9683 22.7607 35.7198C21.6616 35.1512 18.7898 33.337 18.3101 33.0436C17.9171 32.8033 17.4151 32.9459 17.1881 33.3619C16.9611 33.7779 17.0959 34.3092 17.4889 34.5494C17.9585 34.8364 22.5689 37.5493 22.8009 37.6588C24.1085 38.2777 25.3787 38.3955 26.6835 38.0197L34.9389 35.6429C37.1829 34.9967 38.7606 35.2784 39.0569 36.3778C39.2576 37.1221 38.8372 38.1091 38.2384 38.2984ZM4.62972 30.1283C4.58221 30.5584 4.21435 30.8661 3.80793 30.8158C3.4015 30.7655 3.1108 30.3762 3.15832 29.946C3.20584 29.5158 3.57369 29.2082 3.98011 29.2585C4.38654 29.3088 4.67724 29.6981 4.62972 30.1283ZM51.3995 15.3293L48.2979 2.64269C48.034 1.56343 46.9903 0.912561 45.9706 1.19243L43.6634 1.82437C43.1709 1.95928 42.7566 2.29003 42.4972 2.75629C42.2378 3.22255 42.1651 3.76632 42.2932 4.28761L42.6336 5.68106L41.4596 6.01418L33.0292 0.862858C31.574 -0.0264644 29.9696 -0.233559 28.3897 0.265835L13.2921 5.0367C11.8341 5.49763 10.9151 7.43426 11.364 9.09989C11.5809 9.90519 12.6643 12.4258 17.4928 11.0353L25.7482 8.65848C26.0154 8.58156 26.2782 8.53364 26.5398 8.5147C26.4359 8.65079 26.3391 8.7999 26.2514 8.96084C25.4771 10.3803 25.9294 12.2181 27.2806 13.1453C27.3119 13.1666 27.3437 13.1856 27.3773 13.2021C29.3177 14.1696 31.1408 15.5145 32.6055 16.5949C33.1176 16.9724 33.6006 17.3292 34.0176 17.6156C34.9048 18.2245 35.8362 18.4375 36.7525 18.4375C37.6179 18.4375 38.4699 18.2475 39.2587 18.0227L45.2338 16.318L45.3942 16.9742C45.6167 17.8842 46.3938 18.4895 47.2435 18.4895C47.4012 18.4895 47.5616 18.4688 47.7215 18.4251L50.0292 17.7931C51.0484 17.5132 51.6633 16.4085 51.3995 15.3293ZM38.831 16.3441C37.4926 16.7257 36.0917 16.9677 34.9115 16.1571C34.5174 15.8867 34.0668 15.5541 33.5447 15.1689C32.0431 14.0607 30.177 12.6844 28.1326 11.6572C27.5366 11.2205 27.3387 10.4436 27.6736 9.82945C28.0079 9.21645 28.5345 9.03185 29.24 9.28036C30.3391 9.84898 33.2109 11.6631 33.6906 11.9566C34.0836 12.1962 34.5856 12.0542 34.8126 11.6383C35.0396 11.2223 34.9048 10.691 34.5118 10.4507C34.0422 10.1638 29.4312 7.45083 29.1998 7.34136C27.8922 6.72245 26.622 6.6047 25.3172 6.98043L17.0618 9.35728C14.8178 10.0034 13.2401 9.72176 12.9438 8.62239C12.7432 7.87803 13.1641 6.89108 13.7623 6.70174L28.8599 1.93087C30.0121 1.56698 31.1385 1.71372 32.208 2.36755L40.933 7.69934C41.122 7.81472 41.3461 7.84549 41.5564 7.78632L43.0451 7.36385L44.8229 14.6346L38.831 16.3441ZM49.6178 16.1097L47.31 16.7417C47.2184 16.7671 47.144 16.7328 47.1082 16.7103C47.0725 16.6878 47.0082 16.6358 46.9847 16.5387L43.8831 3.85212C43.8596 3.75508 43.8915 3.67638 43.9127 3.63851C43.934 3.60065 43.9832 3.5326 44.0749 3.50775L46.382 2.87582C46.5224 2.83736 46.6716 2.93025 46.708 3.07877L49.8095 15.7654C49.8459 15.9133 49.7581 16.0713 49.6178 16.1097ZM48.8418 15.0541C48.7943 15.4843 48.4265 15.792 48.02 15.7417C47.6136 15.6914 47.3229 15.3021 47.3704 14.8719C47.4179 14.4417 47.7858 14.1341 48.1922 14.1844C48.5986 14.2352 48.8894 14.6246 48.8418 15.0541Z" fill="#00357B"/>
</svg>
