<svg width="164" height="71" viewBox="0 0 164 71" fill="none" xmlns="http://www.w3.org/2000/svg">
<g clip-path="url(#clip0_355_178)">
<path d="M77.4977 68.2371C77.4823 68.1137 77.5132 68.0365 77.3894 67.9902C77.2347 67.9284 77.0181 67.8976 76.8479 67.8976C76.1826 67.8976 75.5328 68.3915 75.5328 69.1015C75.5328 69.4411 75.6721 69.7189 75.9351 69.935C76.1672 70.1511 76.4611 70.2282 76.7706 70.2282C77.0181 70.2282 77.2966 70.1665 77.5132 70.0276C77.5906 69.9658 77.5751 69.935 77.5751 69.8424V69.4256C77.5751 69.3793 77.5596 69.2713 77.606 69.225C77.637 69.2095 77.6834 69.2095 77.7143 69.1941H77.7762C77.8072 69.1941 77.8381 69.1941 77.8381 69.1478C77.8381 69.1169 77.8072 69.1015 77.7917 69.1015C77.6679 69.1015 77.5442 69.1169 77.4359 69.1169C77.3121 69.1169 77.1883 69.1015 77.0645 69.1015C77.0336 69.1015 76.9717 69.1015 76.9717 69.1478C76.9717 69.1941 77.0336 69.1941 77.0645 69.1941C77.2657 69.1941 77.2966 69.225 77.2966 69.4256V69.7189C77.2966 69.8115 77.2966 69.9658 77.2347 70.0276C77.1264 70.1048 76.9562 70.1202 76.8325 70.1202C76.5385 70.1202 76.291 70.043 76.0898 69.8115C75.9196 69.5954 75.8423 69.3484 75.8423 69.0706C75.8423 68.8237 75.9351 68.515 76.0898 68.3143C76.2755 68.0828 76.5076 67.9902 76.786 67.9902C77.3894 67.9902 77.3276 68.4532 77.4513 68.4532C77.4823 68.4532 77.4977 68.4224 77.4977 68.3915V68.2371Z" fill="#004572"/>
<path d="M78.5189 68.2372C78.5189 68.1754 78.5189 68.0983 78.5808 68.0674C78.6272 68.0519 78.7819 68.052 78.8438 68.052C78.9521 68.052 79.1068 68.052 79.2151 68.0828C79.3389 68.1137 79.3853 68.1754 79.4317 68.2989L79.4781 68.3915C79.4936 68.4224 79.5091 68.4687 79.54 68.4687C79.571 68.4687 79.571 68.407 79.571 68.3915V68.0828C79.571 68.0365 79.5864 67.9439 79.5246 67.9439C79.2306 67.9439 78.9366 67.9593 78.6427 67.9593C78.4261 67.9593 78.2095 67.9439 77.9929 67.9439C77.9619 67.9439 77.931 67.9748 77.931 68.0056C77.931 68.052 77.9929 68.052 78.0238 68.052C78.2713 68.052 78.2559 68.1137 78.2559 68.3452V69.7961C78.2559 70.0276 78.2713 70.0893 78.0238 70.0893C77.9929 70.0893 77.931 70.1048 77.931 70.1356C77.931 70.1819 77.9619 70.1974 77.9929 70.1974C78.0702 70.1974 78.1476 70.182 78.2095 70.182H79.5555C79.5864 70.182 79.5864 70.182 79.6019 70.1511L79.6483 69.7806C79.6483 69.7498 79.6638 69.7189 79.6638 69.688C79.6638 69.6726 79.6483 69.6572 79.6329 69.6572C79.5864 69.6572 79.5555 69.7498 79.5555 69.7806C79.4317 70.0893 79.2461 70.0893 78.9521 70.0893C78.6736 70.0893 78.5189 70.0893 78.5189 69.7652V69.1478C78.5189 69.0243 78.5498 69.0243 78.6891 69.0243C78.7974 69.0243 78.983 69.0243 79.1068 69.0552C79.1842 69.0706 79.2151 69.1787 79.2306 69.2867C79.2306 69.3022 79.2461 69.333 79.277 69.333C79.2925 69.333 79.3079 69.333 79.3079 69.2713C79.3079 69.1633 79.308 69.0552 79.2925 68.9472C79.308 68.8391 79.3079 68.7311 79.3079 68.6385C79.3079 68.6076 79.2925 68.5922 79.277 68.5922C79.2461 68.5922 79.2306 68.6385 79.2306 68.6539C79.2151 68.762 79.1997 68.9009 79.1068 68.9009C78.983 68.9163 78.7974 68.9163 78.6891 68.9163C78.5498 68.9163 78.5189 68.9163 78.5189 68.7465V68.2372Z" fill="#004572"/>
<path d="M83.114 68.2372C83.114 68.1754 83.114 68.0983 83.1758 68.0674C83.2377 68.0519 83.377 68.052 83.4389 68.052C83.5626 68.052 83.7019 68.052 83.8102 68.0828C83.934 68.1137 83.9804 68.1754 84.0268 68.2989L84.0887 68.3915C84.0887 68.4224 84.1041 68.4687 84.1351 68.4687C84.166 68.4687 84.166 68.407 84.166 68.3915V68.0828C84.166 68.0365 84.1815 67.9439 84.1196 67.9439C83.8257 67.9439 83.5317 67.9593 83.2377 67.9593C83.0211 67.9593 82.8045 67.9439 82.5879 67.9439C82.557 67.9439 82.5415 67.9748 82.5415 68.0056C82.5415 68.052 82.5879 68.052 82.6189 68.052C82.8664 68.052 82.8509 68.1137 82.8509 68.3452V69.7961C82.8509 70.0276 82.8664 70.0893 82.6189 70.0893C82.5879 70.0893 82.5415 70.1048 82.5415 70.1356C82.5415 70.1819 82.557 70.1974 82.5879 70.1974C82.6653 70.1974 82.7426 70.182 82.8045 70.182H84.1506C84.1815 70.182 84.1815 70.182 84.197 70.1511L84.2434 69.7806C84.2589 69.7498 84.2589 69.7189 84.2589 69.688C84.2589 69.6726 84.2434 69.6572 84.2279 69.6572C84.1815 69.6572 84.1506 69.7498 84.1506 69.7806C84.0268 70.0893 83.8411 70.0893 83.5472 70.0893C83.2687 70.0893 83.114 70.0893 83.114 69.7652V69.1478C83.114 69.0243 83.1604 69.0243 83.2996 69.0243C83.3924 69.0243 83.5781 69.0243 83.7174 69.0552C83.7792 69.0706 83.8102 69.1787 83.8257 69.2867C83.8411 69.3022 83.8411 69.333 83.8721 69.333C83.8875 69.333 83.9185 69.333 83.9185 69.2713C83.903 69.1633 83.903 69.0552 83.903 68.9472C83.903 68.8391 83.903 68.7311 83.9185 68.6385C83.9185 68.6076 83.8875 68.5922 83.8721 68.5922C83.8411 68.5922 83.8411 68.6385 83.8257 68.6539C83.8102 68.762 83.7947 68.9009 83.7174 68.9009C83.5781 68.9163 83.3924 68.9163 83.2996 68.9163C83.1449 68.9163 83.114 68.9163 83.114 68.7465V68.2372Z" fill="#004572"/>
<path d="M85.6823 69.7652L85.0634 68.2526C85.048 68.2063 85.017 68.16 85.017 68.0983C85.017 68.0365 85.1717 68.052 85.1872 68.0365C85.2182 68.0365 85.2646 68.0365 85.2646 67.9902C85.2646 67.9439 85.2336 67.9439 85.2027 67.9439C85.0944 67.9439 84.9861 67.9593 84.8778 67.9593C84.754 67.9593 84.6457 67.9439 84.5219 67.9439C84.491 67.9439 84.4446 67.9593 84.4446 67.9902C84.4446 68.052 84.5065 68.052 84.5374 68.052C84.6921 68.052 84.7385 68.16 84.785 68.2835L85.5276 70.1202C85.5431 70.1356 85.5585 70.2283 85.5895 70.2283C85.6204 70.2283 85.6359 70.1356 85.6514 70.1202L86.3476 68.3298C86.3785 68.2526 86.425 68.1446 86.4868 68.0983C86.5178 68.0519 86.5797 68.052 86.6261 68.052C86.657 68.052 86.7034 68.0365 86.7034 67.9902C86.7034 67.9593 86.688 67.9439 86.657 67.9439C86.5642 67.9439 86.4714 67.9593 86.3631 67.9593C86.2702 67.9593 86.1774 67.9439 86.0691 67.9439C86.0382 67.9439 85.9917 67.9593 85.9917 68.0056C85.9917 68.052 86.1155 68.052 86.1465 68.052C86.2084 68.052 86.3012 68.0674 86.3012 68.1446C86.3012 68.2063 86.2702 68.2835 86.2393 68.3298L85.6823 69.7652Z" fill="#004572"/>
<path d="M87.3377 68.2372C87.3377 68.1754 87.3223 68.0983 87.3842 68.0674C87.446 68.0519 87.6008 68.052 87.6472 68.052C87.771 68.052 87.9102 68.052 88.034 68.0828C88.1423 68.1137 88.1887 68.1754 88.2351 68.2989L88.297 68.3915C88.297 68.4224 88.3125 68.4687 88.3434 68.4687C88.3743 68.4687 88.3743 68.407 88.3743 68.3915V68.0828C88.3743 68.0365 88.3898 67.9439 88.3279 67.9439C88.034 67.9439 87.74 67.9593 87.446 67.9593C87.2449 67.9593 87.0128 67.9439 86.8117 67.9439C86.7808 67.9439 86.7498 67.9748 86.7498 68.0056C86.7498 68.052 86.7962 68.052 86.8426 68.052C87.0747 68.052 87.0593 68.1137 87.0593 68.3452V69.7961C87.0593 70.0276 87.0747 70.0893 86.8426 70.0893C86.7962 70.0893 86.7498 70.1048 86.7498 70.1356C86.7498 70.1819 86.7808 70.1974 86.8117 70.1974C86.8736 70.1974 86.951 70.182 87.0128 70.182H88.3589C88.3898 70.182 88.4053 70.182 88.4053 70.1511L88.4517 69.7806C88.4672 69.7498 88.4672 69.7189 88.4672 69.688C88.4672 69.6726 88.4517 69.6572 88.4362 69.6572C88.3898 69.6572 88.3743 69.7498 88.3589 69.7806C88.2351 70.0893 88.0494 70.0893 87.7555 70.0893C87.477 70.0893 87.3377 70.0893 87.3377 69.7652V69.1478C87.3377 69.0243 87.3687 69.0243 87.5079 69.0243C87.6008 69.0243 87.7864 69.0243 87.9257 69.0552C88.003 69.0706 88.0185 69.1787 88.034 69.2867C88.0494 69.3022 88.0494 69.333 88.0804 69.333C88.0959 69.333 88.1268 69.333 88.1268 69.2713C88.1268 69.1633 88.1113 69.0552 88.1113 68.9472C88.1113 68.8391 88.1268 68.7311 88.1268 68.6385C88.1268 68.6076 88.0959 68.5922 88.0804 68.5922C88.0494 68.5922 88.0494 68.6385 88.034 68.6539C88.0185 68.762 88.003 68.9009 87.9257 68.9009C87.7864 68.9163 87.6008 68.9163 87.5079 68.9163C87.3687 68.9163 87.3377 68.9163 87.3377 68.7465V68.2372Z" fill="#004572"/>
<path d="M81.8917 69.7189L80.5921 68.0828C80.5457 68.0211 80.5147 67.9748 80.4374 67.9594H79.9887C79.9578 67.9594 79.9113 67.9594 79.9113 68.0057C79.9113 68.052 79.9578 68.052 79.9887 68.052C80.2517 68.052 80.2363 68.1291 80.2363 68.3452V69.8115C80.2363 70.0276 80.2517 70.1048 79.9887 70.1048C79.9578 70.1048 79.8959 70.0894 79.8959 70.1357C79.8959 70.182 79.9268 70.1974 79.9732 70.1974C80.0661 70.1974 80.1744 70.182 80.2827 70.182C80.391 70.182 80.4993 70.1974 80.6076 70.1974C80.6385 70.1974 80.6695 70.182 80.6695 70.1357C80.6695 70.0894 80.6076 70.1048 80.5766 70.1048C80.3136 70.1048 80.3446 70.0276 80.3446 69.8115V68.1909L81.8762 70.1357C81.8917 70.1665 81.9227 70.2283 81.9691 70.2283C82 70.2283 81.9846 70.182 81.9846 70.1665V68.3452C81.9846 68.1291 81.9691 68.052 82.2321 68.052C82.263 68.052 82.3249 68.052 82.3249 68.0057C82.3249 67.9748 82.294 67.9594 82.263 67.9594C82.1547 67.9594 82.0464 67.9748 81.9381 67.9748C81.8298 67.9748 81.737 67.9594 81.6287 67.9594C81.5823 67.9594 81.5513 67.9748 81.5513 68.0057C81.5513 68.052 81.6132 68.052 81.6442 68.052C81.9072 68.052 81.8917 68.1291 81.8917 68.3452V69.7189Z" fill="#004572"/>
<path d="M66.9306 60.6124C66.8996 60.3037 67.0079 60.1185 66.683 59.995C66.2343 59.8098 65.6619 59.7172 65.1823 59.7172C63.403 59.7172 61.6547 61.06 61.6547 62.9893C61.6547 63.9154 62.0415 64.6717 62.7377 65.2583C63.3876 65.8139 64.1611 66.0146 64.9966 66.0146C65.6774 66.0146 66.4045 65.8756 66.977 65.4898C67.1936 65.3354 67.1472 65.2274 67.1472 64.9804V63.8691C67.1472 63.7302 67.1317 63.4524 67.2555 63.3443C67.3174 63.2672 67.4566 63.2672 67.5494 63.2672L67.7196 63.2363C67.797 63.2363 67.8898 63.2363 67.8898 63.1128C67.8898 63.0202 67.8125 63.0048 67.7351 63.0048H65.7702C65.6928 63.0048 65.5536 63.0048 65.5536 63.1283C65.5536 63.2517 65.6928 63.2363 65.7857 63.2363C66.3272 63.2363 66.42 63.3289 66.42 63.8691V64.6717C66.42 64.9033 66.4355 65.32 66.2344 65.4898C65.9868 65.7059 65.4917 65.7522 65.1823 65.7522C64.3777 65.7522 63.697 65.5361 63.171 64.8878C62.6913 64.3322 62.5057 63.653 62.5057 62.9276C62.5057 62.233 62.7377 61.3996 63.171 60.8593C63.6506 60.2419 64.3004 60.0104 65.043 60.0104C66.683 60.0104 66.5128 61.2452 66.8223 61.2452C66.9306 61.2452 66.9615 61.1526 66.9615 61.06L66.9306 60.6124Z" fill="#004572"/>
<path d="M68.9419 64.8878C68.9419 65.5052 68.9883 65.6904 68.3385 65.6904C68.2457 65.6904 68.0909 65.6904 68.0909 65.8139C68.0909 65.922 68.1683 65.9374 68.2611 65.9374C68.6015 65.9374 68.9574 65.8911 69.3132 65.8911C69.6691 65.8911 70.0094 65.9374 70.3653 65.9374C70.4426 65.9374 70.52 65.922 70.52 65.8139C70.52 65.6904 70.3653 65.6904 70.2725 65.6904C69.6381 65.6904 69.6691 65.5052 69.6691 64.8878V63.4061C69.6691 63.3135 69.6691 63.082 69.7155 63.0202C69.7619 62.9585 69.8547 62.9739 69.9166 62.9739C70.6283 62.9739 70.6128 63.0511 70.9532 63.7302L71.866 65.6133C71.9434 65.7522 71.9898 65.9374 72.1909 65.9374H73.1657C73.243 65.9374 73.3359 65.922 73.3359 65.8293C73.3359 65.6904 73.1657 65.6904 73.0883 65.6904C72.686 65.6904 72.5468 65.3354 72.3766 64.9959L71.6185 63.4833C71.4947 63.2363 71.3555 62.8967 71.0615 62.8504C71.8351 62.7424 72.5313 62.233 72.5313 61.3533C72.5313 60.3346 71.6494 59.8715 70.7676 59.8715C70.2415 59.8715 69.7155 59.9178 69.174 59.9178C68.88 59.9178 68.5706 59.8715 68.2611 59.8715C68.1683 59.8715 68.0909 59.9178 68.0909 60.0259C68.0909 60.1339 68.2457 60.1339 68.3385 60.1339C68.9883 60.1339 68.9419 60.3191 68.9419 60.9365V64.8878ZM69.6691 60.8593C69.6691 60.1802 69.6845 60.0876 70.3962 60.0876C71.2162 60.0876 71.7423 60.5661 71.7423 61.4613C71.7423 61.8472 71.6185 62.2022 71.3091 62.4337C70.9532 62.7115 70.5664 62.7578 70.1487 62.7578C69.994 62.7578 69.6691 62.8196 69.6691 62.588V60.8593Z" fill="#004572"/>
<path d="M68.9419 64.8878C68.9419 65.5052 68.9883 65.6904 68.3385 65.6904C68.2457 65.6904 68.0909 65.6904 68.0909 65.8139C68.0909 65.922 68.1683 65.9374 68.2611 65.9374C68.6015 65.9374 68.9574 65.8911 69.3132 65.8911C69.6691 65.8911 70.0094 65.9374 70.3653 65.9374C70.4426 65.9374 70.52 65.922 70.52 65.8139C70.52 65.6904 70.3653 65.6904 70.2725 65.6904C69.6381 65.6904 69.6691 65.5052 69.6691 64.8878V63.4061C69.6691 63.3135 69.6691 63.082 69.7155 63.0202C69.7619 62.9585 69.8547 62.9739 69.9166 62.9739C70.6283 62.9739 70.6128 63.0511 70.9532 63.7302L71.866 65.6133C71.9434 65.7522 71.9898 65.9374 72.1909 65.9374H73.1657C73.243 65.9374 73.3359 65.922 73.3359 65.8293C73.3359 65.6904 73.1657 65.6904 73.0883 65.6904C72.686 65.6904 72.5468 65.3354 72.3766 64.9959L71.6185 63.4833C71.4947 63.2363 71.3555 62.8967 71.0615 62.8504C71.8351 62.7424 72.5313 62.233 72.5313 61.3533C72.5313 60.3346 71.6494 59.8715 70.7676 59.8715C70.2415 59.8715 69.7155 59.9178 69.174 59.9178C68.88 59.9178 68.5706 59.8715 68.2611 59.8715C68.1683 59.8715 68.0909 59.9178 68.0909 60.0259C68.0909 60.1339 68.2457 60.1339 68.3385 60.1339C68.9883 60.1339 68.9419 60.3191 68.9419 60.9365V64.8878ZM69.6691 60.8593C69.6691 60.1802 69.6845 60.0876 70.3962 60.0876C71.2162 60.0876 71.7423 60.5661 71.7423 61.4613C71.7423 61.8472 71.6185 62.2022 71.3091 62.4337C70.9532 62.7115 70.5664 62.7578 70.1487 62.7578C69.994 62.7578 69.6691 62.8196 69.6691 62.588V60.8593Z" fill="#004572"/>
<path d="M74.8212 64.8878C74.8212 65.5052 74.8676 65.6904 74.2178 65.6904C74.125 65.6904 73.9857 65.6904 73.9857 65.8139C73.9857 65.922 74.0476 65.9374 74.1404 65.9374H76.2446C76.3219 65.9374 76.3993 65.922 76.3993 65.8139C76.3993 65.6904 76.2446 65.6904 76.1518 65.6904C75.5174 65.6904 75.5484 65.5052 75.5484 64.8878V60.9365C75.5484 60.3191 75.5019 60.1339 76.1518 60.1339C76.2446 60.1339 76.3993 60.1339 76.3993 60.0104C76.3993 59.9024 76.3219 59.8715 76.2446 59.8715H74.1404C74.0476 59.8715 73.9857 59.9024 73.9857 60.0104C73.9857 60.1339 74.125 60.1339 74.2178 60.1339C74.8676 60.1339 74.8212 60.3191 74.8212 60.9365V64.8878Z" fill="#004572"/>
<path d="M78.5962 63.1283C79.2306 63.4215 79.7412 63.8074 79.7412 64.5791C79.7412 65.3354 79.0449 65.8293 78.3487 65.8293C77.4978 65.8293 77.08 65.3046 76.9872 64.4711C76.9717 64.3939 76.9717 64.1624 76.8479 64.1624C76.7551 64.1624 76.7242 64.2704 76.7087 64.3476C76.6778 64.61 76.7087 64.8724 76.7087 65.1193C76.7087 65.3046 76.6623 65.5361 76.817 65.6441C77.2038 65.8756 77.7608 66.0146 78.2249 66.0146C78.751 66.0146 79.2925 65.8756 79.7102 65.5052C80.1125 65.1656 80.36 64.6872 80.36 64.1469C80.36 63.7302 80.1744 63.298 79.9113 62.9893C79.6947 62.7424 79.2925 62.5417 78.983 62.3874C78.3796 62.125 77.3585 61.7854 77.3585 60.952C77.3585 60.242 77.9464 59.9178 78.5653 59.9178C79.2925 59.9178 79.571 60.2728 79.7721 60.9365C79.803 61.0137 79.8185 61.168 79.9268 61.168C79.9887 61.168 80.0196 61.1217 80.0196 61.0446C80.0196 60.7976 80.0351 60.5661 80.0351 60.3037C80.0196 60.1339 79.9887 60.0104 79.8185 59.9333C79.4781 59.7943 78.9366 59.7172 78.5653 59.7172C77.6525 59.7172 76.7706 60.35 76.7706 61.3533C76.7706 62.2176 77.4513 62.6189 78.1321 62.9276L78.5962 63.1283Z" fill="#004572"/>
<path d="M80.7778 62.8659C80.7778 64.6254 82.3404 66.0146 84.0268 66.0146C85.7906 66.0146 87.2604 64.7335 87.2604 62.8659C87.2604 60.9983 85.7906 59.7172 84.0268 59.7172C82.3404 59.7172 80.7778 61.1063 80.7778 62.8659ZM86.4095 62.8659C86.4095 63.5913 86.2702 64.2396 85.837 64.8106C85.3883 65.3817 84.754 65.7367 84.0423 65.7367C83.3306 65.7367 82.6808 65.4435 82.2321 64.8878C81.7834 64.3167 81.6132 63.5913 81.6132 62.8659C81.6132 62.1713 81.768 61.4459 82.2012 60.8902C82.6498 60.3037 83.3151 59.9796 84.0423 59.9796C84.7385 59.9796 85.3574 60.3191 85.7906 60.8593C86.2702 61.4613 86.4095 62.125 86.4095 62.8659Z" fill="#004572"/>
<path d="M80.7778 62.8659C80.7778 64.6254 82.3404 66.0146 84.0268 66.0146C85.7906 66.0146 87.2604 64.7335 87.2604 62.8659C87.2604 60.9983 85.7906 59.7172 84.0268 59.7172C82.3404 59.7172 80.7778 61.1063 80.7778 62.8659ZM86.4095 62.8659C86.4095 63.5913 86.2702 64.2396 85.837 64.8106C85.3883 65.3817 84.754 65.7367 84.0423 65.7367C83.3306 65.7367 82.6808 65.4435 82.2321 64.8878C81.7834 64.3167 81.6132 63.5913 81.6132 62.8659C81.6132 62.1713 81.768 61.4459 82.2012 60.8902C82.6498 60.3037 83.3151 59.9796 84.0423 59.9796C84.7385 59.9796 85.3574 60.3191 85.7906 60.8593C86.2702 61.4613 86.4095 62.125 86.4095 62.8659Z" fill="#004572"/>
<path d="M92.8611 60.6433C92.8302 60.3346 92.8921 60.1185 92.5672 59.995C92.134 59.8098 91.546 59.7172 91.0819 59.7172C89.2872 59.7172 87.5389 61.06 87.5389 62.9893C87.5389 63.9154 87.9257 64.6717 88.6219 65.2583C89.2717 65.8139 90.0453 66.0146 90.8808 66.0146C91.5615 66.0146 92.2887 65.8756 92.8766 65.4898C93.0777 65.3354 93.0468 65.2274 93.0468 64.9804V63.8691C93.0468 63.7302 93.0159 63.4524 93.1396 63.3443C93.2015 63.2672 93.3408 63.2672 93.4336 63.2672L93.6038 63.2363C93.6966 63.2363 93.7894 63.2363 93.7894 63.1128C93.7894 63.0202 93.6966 63.0048 93.6193 63.0048H91.6544C91.577 63.0048 91.4532 63.0048 91.4532 63.1283C91.4532 63.2517 91.577 63.2363 91.6698 63.2363C92.2113 63.2363 92.3042 63.3289 92.3042 63.8691V64.6717C92.3042 64.9033 92.3196 65.32 92.134 65.4898C91.871 65.7059 91.3759 65.7522 91.0664 65.7522C90.2619 65.7522 89.5811 65.5361 89.0551 64.8878C88.5755 64.3322 88.3898 63.653 88.3898 62.9276C88.3898 62.233 88.6219 61.3996 89.0551 60.8593C89.5347 60.2419 90.1845 60.0104 90.9272 60.0104C92.5672 60.0104 92.397 61.2452 92.7064 61.2452C92.8147 61.2452 92.8457 61.1526 92.8457 61.06L92.8611 60.6433Z" fill="#004572"/>
<path d="M94.0989 62.8659C94.0989 64.6254 95.6615 66.0146 97.3479 66.0146C99.1117 66.0146 100.582 64.7335 100.582 62.8659C100.582 60.9983 99.1117 59.7172 97.3479 59.7172C95.6615 59.7172 94.0989 61.1063 94.0989 62.8659ZM99.7306 62.8659C99.7306 63.5913 99.5913 64.2396 99.1581 64.8106C98.7094 65.3817 98.0751 65.7367 97.3634 65.7367C96.6517 65.7367 96.0019 65.4435 95.5532 64.8878C95.1045 64.3167 94.9344 63.5913 94.9344 62.8659C94.9344 62.1713 95.0891 61.4459 95.5223 60.8902C95.971 60.3037 96.6362 59.9796 97.3634 59.9796C98.0596 59.9796 98.6785 60.3191 99.1272 60.8593C99.5913 61.4613 99.7306 62.125 99.7306 62.8659Z" fill="#004572"/>
<path d="M94.0989 62.8659C94.0989 64.6254 95.6615 66.0146 97.3479 66.0146C99.1117 66.0146 100.582 64.7335 100.582 62.8659C100.582 60.9983 99.1117 59.7172 97.3479 59.7172C95.6615 59.7172 94.0989 61.1063 94.0989 62.8659ZM99.7306 62.8659C99.7306 63.5913 99.5913 64.2396 99.1581 64.8106C98.7094 65.3817 98.0751 65.7367 97.3634 65.7367C96.6517 65.7367 96.0019 65.4435 95.5532 64.8878C95.1045 64.3167 94.9344 63.5913 94.9344 62.8659C94.9344 62.1713 95.0891 61.4459 95.5223 60.8902C95.971 60.3037 96.6362 59.9796 97.3634 59.9796C98.0596 59.9796 98.6785 60.3191 99.1272 60.8593C99.5913 61.4613 99.7306 62.125 99.7306 62.8659Z" fill="#004572"/>
<path d="M105.61 64.6563L102.314 60.2111C102.206 60.0567 102.129 59.9333 101.943 59.8715H100.783C100.69 59.8715 100.566 59.887 100.566 60.0413C100.566 60.1339 100.705 60.1339 100.798 60.1339C101.448 60.1339 101.402 60.3346 101.402 60.9365V64.8878C101.402 65.4898 101.448 65.6904 100.798 65.6904C100.705 65.6904 100.551 65.6596 100.551 65.7985C100.551 65.8911 100.628 65.9374 100.721 65.9374H102.345C102.438 65.9374 102.5 65.8911 102.5 65.7985C102.5 65.6596 102.361 65.6904 102.268 65.6904C101.618 65.6904 101.665 65.4898 101.665 64.8878V60.5198L105.579 65.7985C105.625 65.8757 105.703 66.03 105.811 66.03C105.888 66.03 105.873 65.8911 105.873 65.8448V60.9365C105.873 60.35 105.842 60.1339 106.476 60.1339C106.569 60.1339 106.724 60.1339 106.724 60.0413C106.724 59.9333 106.646 59.8715 106.569 59.8715H104.929C104.836 59.8715 104.774 59.9333 104.774 60.0413C104.774 60.1339 104.914 60.1339 105.006 60.1339C105.656 60.1339 105.61 60.3346 105.61 60.9365V64.6563Z" fill="#004572"/>
<path d="M106.383 62.8659C106.383 64.6254 107.962 66.0146 109.632 66.0146C111.412 66.0146 112.882 64.7335 112.882 62.8659C112.882 60.9983 111.412 59.7172 109.632 59.7172C107.962 59.7172 106.383 61.1063 106.383 62.8659ZM112.031 62.8659C112.031 63.5913 111.891 64.2396 111.458 64.8106C111.009 65.3817 110.375 65.7367 109.648 65.7367C108.952 65.7367 108.302 65.4435 107.853 64.8878C107.389 64.3167 107.234 63.5913 107.234 62.8659C107.234 62.1713 107.389 61.4459 107.807 60.8902C108.255 60.3037 108.936 59.9796 109.648 59.9796C110.36 59.9796 110.963 60.3191 111.412 60.8593C111.876 61.4613 112.031 62.125 112.031 62.8659Z" fill="#004572"/>
<path d="M106.383 62.8659C106.383 64.6254 107.962 66.0146 109.632 66.0146C111.412 66.0146 112.882 64.7335 112.882 62.8659C112.882 60.9983 111.412 59.7172 109.632 59.7172C107.962 59.7172 106.383 61.1063 106.383 62.8659ZM112.031 62.8659C112.031 63.5913 111.891 64.2396 111.458 64.8106C111.009 65.3817 110.375 65.7367 109.648 65.7367C108.952 65.7367 108.302 65.4435 107.853 64.8878C107.389 64.3167 107.234 63.5913 107.234 62.8659C107.234 62.1713 107.389 61.4459 107.807 60.8902C108.255 60.3037 108.936 59.9796 109.648 59.9796C110.36 59.9796 110.963 60.3191 111.412 60.8593C111.876 61.4613 112.031 62.125 112.031 62.8659Z" fill="#004572"/>
<path d="M59.3649 63.545C59.4578 63.545 59.4732 63.4678 59.4732 63.3907C59.4732 63.082 59.3495 62.6961 59.1638 62.4646C58.8544 62.0787 58.3747 61.8935 57.8951 61.8935C57.3072 61.8935 56.7502 62.1096 56.317 62.5109C55.8529 62.9276 55.6827 63.4215 55.6827 64.0389C55.6827 65.1811 56.5336 66.1381 57.694 66.1381C58.2355 66.1381 58.6687 65.9991 59.0864 65.6287C59.1329 65.567 59.4268 65.32 59.4268 65.212C59.4268 65.1811 59.3959 65.1502 59.3495 65.1502C59.2412 65.1502 58.9163 65.7368 58.0498 65.7368C56.9823 65.7368 56.348 64.857 56.348 63.8228C56.348 63.5296 56.4253 63.545 56.7038 63.545H59.3649ZM56.7038 63.3289C56.611 63.3289 56.4098 63.3444 56.4098 63.2055C56.4098 63.0665 56.5491 62.7733 56.6264 62.6807C56.8895 62.2948 57.3227 62.0633 57.7714 62.0633C58.0653 62.0633 58.3438 62.1405 58.5449 62.3411C58.6687 62.48 58.777 62.6961 58.777 62.8813C58.777 63.1128 58.6378 63.2055 58.4521 63.2518C58.1891 63.3135 57.694 63.3289 57.431 63.3289H56.7038Z" fill="#004572"/>
<path d="M59.3649 63.545C59.4578 63.545 59.4732 63.4678 59.4732 63.3907C59.4732 63.082 59.3495 62.6961 59.1638 62.4646C58.8544 62.0787 58.3747 61.8935 57.8951 61.8935C57.3072 61.8935 56.7502 62.1096 56.317 62.5109C55.8529 62.9276 55.6827 63.4215 55.6827 64.0389C55.6827 65.1811 56.5336 66.1381 57.694 66.1381C58.2355 66.1381 58.6687 65.9991 59.0864 65.6287C59.1329 65.567 59.4268 65.32 59.4268 65.212C59.4268 65.1811 59.3959 65.1502 59.3495 65.1502C59.2412 65.1502 58.9163 65.7368 58.0498 65.7368C56.9823 65.7368 56.348 64.857 56.348 63.8228C56.348 63.5296 56.4253 63.545 56.7038 63.545H59.3649ZM56.7038 63.3289C56.611 63.3289 56.4098 63.3444 56.4098 63.2055C56.4098 63.0665 56.5491 62.7733 56.6264 62.6807C56.8895 62.2948 57.3227 62.0633 57.7714 62.0633C58.0653 62.0633 58.3438 62.1405 58.5449 62.3411C58.6687 62.48 58.777 62.6961 58.777 62.8813C58.777 63.1128 58.6378 63.2055 58.4521 63.2518C58.1891 63.3135 57.694 63.3289 57.431 63.3289H56.7038Z" fill="#004572"/>
<path d="M54.4295 64.8569C54.4295 65.0421 54.4449 65.1656 54.3366 65.32C54.0891 65.6132 53.6559 65.7521 53.3 65.7521C52.3253 65.7521 51.7683 64.8106 51.7683 63.8845C51.7683 62.9739 52.3408 62.1558 53.3 62.0632C53.594 62.0324 53.9963 62.1404 54.2129 62.3565C54.4449 62.5726 54.4295 62.9276 54.4295 63.2054V64.8569ZM55.0174 59.8715C55.0174 59.8098 55.0174 59.7943 54.94 59.7943C54.8781 59.7943 54.0736 59.748 53.8261 59.7943C53.7797 59.7943 53.7487 59.8715 53.7487 59.9332C53.7487 60.0567 53.8415 60.103 53.9189 60.0876C54.5378 60.0258 54.4295 60.5969 54.4295 60.9365V61.8008C54.4295 61.8626 54.4604 62.1404 54.3521 62.1404C54.3057 62.1404 54.2283 62.1095 54.1819 62.0941C53.9034 61.9706 53.5785 61.9243 53.2536 61.8934C52.6812 61.878 52.1397 62.1713 51.7374 62.5571C51.3506 62.943 51.1185 63.4524 51.1185 64.0234C51.1185 65.1193 51.9076 66.138 53.0215 66.138C53.7332 66.138 54.3057 65.7058 54.3831 65.5206C54.414 65.4435 54.4295 65.7985 54.4295 65.8293C54.4295 65.8911 54.4759 66.0763 54.5687 66.0763C54.6151 66.0763 55.6053 66.1071 55.6517 66.0763C55.6517 66.0763 55.7291 65.9837 55.7446 65.8602C55.7446 65.8602 55.6208 65.7367 55.5589 65.7367H55.1721C55.0019 65.7367 55.0329 65.2737 55.0329 65.1811L55.0174 59.8715Z" fill="#004572"/>
<path d="M54.4295 64.8569C54.4295 65.0421 54.4449 65.1656 54.3366 65.32C54.0891 65.6132 53.6559 65.7521 53.3 65.7521C52.3253 65.7521 51.7683 64.8106 51.7683 63.8845C51.7683 62.9739 52.3408 62.1558 53.3 62.0632C53.594 62.0324 53.9963 62.1404 54.2129 62.3565C54.4449 62.5726 54.4295 62.9276 54.4295 63.2054V64.8569ZM55.0174 59.8715C55.0174 59.8098 55.0174 59.7943 54.94 59.7943C54.8781 59.7943 54.0736 59.748 53.8261 59.7943C53.7797 59.7943 53.7487 59.8715 53.7487 59.9332C53.7487 60.0567 53.8415 60.103 53.9189 60.0876C54.5378 60.0258 54.4295 60.5969 54.4295 60.9365V61.8008C54.4295 61.8626 54.4604 62.1404 54.3521 62.1404C54.3057 62.1404 54.2283 62.1095 54.1819 62.0941C53.9034 61.9706 53.5785 61.9243 53.2536 61.8934C52.6812 61.878 52.1397 62.1713 51.7374 62.5571C51.3506 62.943 51.1185 63.4524 51.1185 64.0234C51.1185 65.1193 51.9076 66.138 53.0215 66.138C53.7332 66.138 54.3057 65.7058 54.3831 65.5206C54.414 65.4435 54.4295 65.7985 54.4295 65.8293C54.4295 65.8911 54.4759 66.0763 54.5687 66.0763C54.6151 66.0763 55.6053 66.1071 55.6517 66.0763C55.6517 66.0763 55.7291 65.9837 55.7446 65.8602C55.7446 65.8602 55.6208 65.7367 55.5589 65.7367H55.1721C55.0019 65.7367 55.0329 65.2737 55.0329 65.1811L55.0174 59.8715Z" fill="#004572"/>
<path d="M14.5125 10.7426H3.54304V1.32739L0.557007 2.23804V22.3804H3.54304V13.5209H14.5125V22.3804H17.4985V1.32739L14.5125 2.23804V10.7426Z" fill="#004572"/>
<path d="M33.6355 0.771729L24.5072 22.3804H27.5706L29.4272 17.9661H37.8593L39.7159 22.3804H42.7793L33.6355 0.771729ZM36.6989 15.1878H30.6031L33.6355 7.96434L36.6989 15.1878Z" fill="#004572"/>
<path d="M87.4151 16.083C87.4151 13.8295 86.5023 12.2243 84.6147 11.221C85.9144 10.3721 86.5178 9.06018 86.5178 7.14627C86.5178 4.6304 85.4038 1.63605 80.0506 1.63605H73.5215V22.3804H80.0506C84.5219 22.3804 87.4151 19.9108 87.4151 16.083ZM80.0506 9.80105H76.5076V4.6304H80.0506C83.1449 4.6304 83.5163 6.06583 83.5163 7.14627C83.5163 8.9367 82.3714 9.80105 80.0506 9.80105ZM80.7468 19.4015H76.5076V12.78H80.7468C82.7891 12.78 84.3981 14.2308 84.3981 16.083C84.3981 17.9506 82.7891 19.4015 80.7468 19.4015Z" fill="#004572"/>
<path d="M116.363 12.0391C116.363 6.08127 111.505 1.25018 105.548 1.25018C99.5759 1.25018 94.7178 6.08127 94.7178 12.0391C94.7178 17.9815 99.5759 22.828 105.548 22.828C111.505 22.828 116.363 17.9815 116.363 12.0391ZM113.315 12.0391C113.315 16.438 109.834 20.0189 105.548 20.0189C101.262 20.0189 97.7657 16.438 97.7657 12.0391C97.7657 7.64018 101.262 4.05931 105.548 4.05931C109.834 4.05931 113.315 7.64018 113.315 12.0391Z" fill="#004572"/>
<path d="M140.359 13.845V1.32739L137.373 2.23804V13.845C137.373 16.8085 136.816 20.2041 132.391 20.2041C128.879 20.2041 127.162 18.1204 127.162 13.845V1.32739L124.176 2.23804V13.845C124.16 17.0863 124.888 19.3861 126.404 20.9141C127.765 22.2724 129.777 22.967 132.391 22.967C139.493 22.967 140.344 17.7654 140.359 13.845Z" fill="#004572"/>
<path d="M53.3 16.932H56.4563L60.3397 22.3804H64.2076L59.8755 16.33C62.4283 15.0798 64.0219 12.3941 64.0219 9.33804C64.0219 5.27869 61.0668 1.88304 57.4464 1.775V1.71326H50.2676V22.3804H53.3V16.932ZM61.237 9.33804C61.237 11.9465 59.4268 14.1074 57.1525 14.2463L53.3 14.2617V4.46065H57.4C59.5815 4.72304 61.237 6.82217 61.237 9.33804Z" fill="#004572"/>
<path d="M159.095 16.33C161.648 15.0798 163.242 12.3941 163.242 9.33804C163.242 5.27869 160.287 1.88304 156.666 1.775V1.71326H149.488V22.3804H152.52V16.932H155.676L159.56 22.3804H163.443L159.095 16.33ZM160.457 9.33804C160.457 11.9465 158.647 14.1074 156.372 14.2463L152.52 14.2617V4.46065H156.62C158.802 4.72304 160.457 6.82217 160.457 9.33804Z" fill="#004572"/>
<path d="M24.5691 27.0572L21.5831 27.9678V48.172H33.8212L34.765 45.4091H24.5691V27.0572Z" fill="#004572"/>
<path d="M41.8046 48.1719H44.7906V27.1035L41.8046 28.0141V48.1719Z" fill="#004572"/>
<path d="M63.7589 40.8867H69.0967V43.9583C68.2148 44.6991 66.4974 45.795 64.1302 45.795C59.8291 45.795 56.348 42.2141 56.348 37.8152C56.348 33.4163 59.7982 29.8354 64.0374 29.8354C67.9672 29.8354 70.0404 32.6446 70.0559 32.6754L70.7985 33.6941V29.3415L70.6438 29.218C67.5495 26.8256 64.1612 27.0263 64.0374 27.0263C58.1272 27.0263 53.3 31.8728 53.3 37.8152C53.3 43.773 58.1582 48.6041 64.1148 48.6041C64.1457 48.6196 64.1921 48.6196 64.2695 48.6196C65.1359 48.6196 69.0038 48.4189 71.9899 45.2085L72.0982 45.085V38.1085H64.6872L63.7589 40.8867Z" fill="#004572"/>
<path d="M95.2593 36.5187H84.2899V27.1035L81.3038 28.0141V48.1719H84.2899V39.3124H95.2593V48.1719H98.2453V27.1035L95.2593 28.0141V36.5187Z" fill="#004572"/>
<path d="M105.285 30.283H112.263V48.1719H115.249V30.283H121.298L122.226 27.5048H106.229L105.285 30.283Z" fill="#004572"/>
<path d="M135.857 36.1328L135.486 35.9939C133.335 35.2222 131.107 34.435 131.107 32.8143C131.107 30.8232 132.268 29.8972 134.759 29.8972C137.373 29.8972 139.292 31.0085 140.143 31.95L140.854 32.7526V29.1563L140.731 29.0328C140.112 28.4154 138.302 26.9954 134.759 26.9954C131.479 26.9954 127.982 28.5235 127.982 32.8143C127.982 36.6267 132.237 38.0776 134.279 38.7876L134.526 38.8648C136.754 39.6211 139.292 40.4854 139.292 42.2604C139.292 44.483 137.745 45.6098 134.681 45.6098C132.701 45.6098 129.808 44.1589 128.601 43.1248L127.92 42.5382V46.0574L128.059 46.1809C128.848 46.86 131.045 48.4652 134.681 48.4652C141.071 48.4652 142.417 45.1004 142.417 42.2604C142.417 38.4172 138.472 37.0435 135.857 36.1328Z" fill="#004572"/>
</g>
<defs>
<clipPath id="clip0_355_178">
<rect width="164" height="71" fill="white"/>
</clipPath>
</defs>
</svg>
