<svg width="166" height="21" viewBox="0 0 166 21" fill="none" xmlns="http://www.w3.org/2000/svg">
<path d="M32.0893 10.3295C33.4092 7.07718 33.2959 4.55 31.7492 2.74436C30.2026 0.945897 27.2854 0.0394872 22.9994 0.0394872H8.48309L7.17183 3.29897H17.1667C22.2653 3.29897 23.7422 5.9141 21.9828 10.2451C20.968 12.7508 20.0682 15.0554 17.9461 16.0803C16.0037 17.0208 13.9984 17.2954 10.4291 17.2954L5.80651 17.2864L9.25903 8.8541H4.90502L0 20.8582H13.1562C16.8441 20.8582 19.7561 20.5064 21.9043 19.8064C24.2566 19.0292 26.363 17.7513 28.2252 15.9744C29.9567 14.28 31.2453 12.4008 32.0893 10.3295ZM122.816 0.0179487L122.819 0.0341026H117.429L96.7212 19.9805L104.815 0.0376923H95.9382L85.2145 8.68538L79.694 13.3521H79.4429L82.041 6.55308L78.8744 0.0376923H69.9571L61.8507 20.0182L57.1793 0.0376923H47.4059L25.8224 20.8564H31.2174L36.7345 15.4126H50.3336L51.4164 20.8564H65.8664L71.0888 7.98897C71.3521 7.34282 71.6032 6.59974 71.8491 5.76872C71.8735 6.44 72.0513 7.15436 72.3722 7.90641L76.9668 18.6397H77.7445L90.8885 7.9441C91.382 7.54205 92.1283 6.81692 93.1239 5.76872C92.6147 6.73974 92.259 7.47564 92.0515 7.98897L86.8292 20.8564H96.3689L96.3707 20.851H106.428L111.884 15.382H126.01L127.143 20.851H132.108L127.269 0.0161538H122.816V0.0179487ZM39.5767 12.5569L48.1836 4.08333L49.7372 12.5569H39.5767ZM114.735 12.5264L123.572 3.67051L125.408 12.5264H114.735ZM165.843 0H151.196C146.907 0 143.252 0.90641 140.246 2.71026C137.236 4.5141 135.069 7.04846 133.747 10.3026C132.905 12.3703 132.666 14.2638 133.027 15.9492C133.454 17.7333 134.518 19.0149 136.244 19.7903C137.813 20.4867 140.451 20.8421 144.139 20.8421H157.269L158.582 17.5359H151.184C147.621 17.5359 145.245 17.0621 144.061 16.1179C142.769 15.0967 142.913 12.731 143.921 10.2182C145.688 5.88 149.376 3.17692 154.474 3.17692H160.207L158.893 6.44179H163.243L165.843 0Z" fill="#F5F5F5"/>
</svg>
