<svg width="12" height="10" viewBox="0 0 12 10" fill="none" xmlns="http://www.w3.org/2000/svg">
<path fill-rule="evenodd" clip-rule="evenodd" d="M5.83632 2.46933C7.51109 2.46941 9.12182 3.1416 10.3356 4.34699C10.427 4.44005 10.5731 4.43887 10.6631 4.34435L11.5368 3.42329C11.5824 3.37535 11.6078 3.31041 11.6074 3.24285C11.607 3.17529 11.5809 3.11066 11.5348 3.06329C8.34903 -0.125872 3.32311 -0.125872 0.137338 3.06329C0.0911899 3.11063 0.065006 3.17523 0.0645805 3.2428C0.0641549 3.31036 0.0895228 3.37532 0.135071 3.42329L1.00903 4.34435C1.09899 4.43902 1.2452 4.44019 1.33654 4.34699C2.55047 3.14152 4.16138 2.46933 5.83632 2.46933ZM5.83633 5.46594C6.75651 5.46588 7.64385 5.82315 8.32593 6.46832C8.41819 6.55989 8.56352 6.5579 8.65345 6.46385L9.52614 5.54278C9.5721 5.49447 9.5976 5.42893 9.59694 5.36083C9.59628 5.29272 9.56951 5.22774 9.52262 5.18041C7.44553 3.16219 4.22889 3.16219 2.15181 5.18041C2.10489 5.22774 2.07812 5.29275 2.0775 5.36088C2.07689 5.42901 2.10248 5.49454 2.14853 5.54278L3.02098 6.46385C3.11091 6.5579 3.25623 6.55989 3.34849 6.46832C4.03012 5.82357 4.91676 5.46634 5.83633 5.46594ZM7.58447 7.48212C7.58581 7.55042 7.56011 7.61627 7.51343 7.66411L6.00385 9.25545C5.9596 9.30222 5.89927 9.32854 5.83631 9.32854C5.77336 9.32854 5.71303 9.30222 5.66878 9.25545L4.15894 7.66411C4.1123 7.61623 4.08664 7.55036 4.08803 7.48207C4.08941 7.41377 4.11771 7.3491 4.16625 7.30332C5.13033 6.45156 6.5423 6.45156 7.50638 7.30332C7.55488 7.34914 7.58314 7.41383 7.58447 7.48212Z" fill="white"/>
</svg>
